<mxfile host="app.diagrams.net" modified="2021-05-28T07:40:06.632Z" agent="5.0 (Windows NT 10.0; Win64; x64) AppleWebKit/537.36 (KHTML, like Gecko) Chrome/90.0.4430.212 Safari/537.36" etag="ydRvd4rxtWQaDBTI8_64" version="14.6.13" type="github">
  <diagram name="Page-1" id="97916047-d0de-89f5-080d-49f4d83e522f">
    <mxGraphModel dx="2015" dy="1045" grid="1" gridSize="10" guides="1" tooltips="1" connect="1" arrows="1" fold="1" page="1" pageScale="1.5" pageWidth="1169" pageHeight="827" background="none" math="0" shadow="0">
      <root>
        <mxCell id="0" />
        <mxCell id="1" parent="0" />
        <mxCell id="2" value="Jefe de administradores" style="rounded=1;fillColor=#10739E;strokeColor=none;shadow=1;gradientColor=none;fontStyle=1;fontColor=#FFFFFF;fontSize=14;" parent="1" vertex="1">
          <mxGeometry x="672" y="205.5" width="200" height="60" as="geometry" />
        </mxCell>
        <mxCell id="MXNzYCbqWOXNuMBfoPRi-55" value="" style="endArrow=classic;html=1;" edge="1" parent="1">
          <mxGeometry width="50" height="50" relative="1" as="geometry">
            <mxPoint x="780" y="270" as="sourcePoint" />
            <mxPoint x="647" y="360" as="targetPoint" />
            <Array as="points">
              <mxPoint x="780" y="360" />
            </Array>
          </mxGeometry>
        </mxCell>
        <mxCell id="MXNzYCbqWOXNuMBfoPRi-57" value="&lt;font color=&quot;#fcfcfc&quot; style=&quot;font-size: 14px&quot;&gt;Administrador de torneos&lt;/font&gt;" style="rounded=1;whiteSpace=wrap;html=1;fillColor=#10739E;" vertex="1" parent="1">
          <mxGeometry x="530" y="360" width="180" height="80" as="geometry" />
        </mxCell>
        <mxCell id="MXNzYCbqWOXNuMBfoPRi-58" value="&lt;font style=&quot;font-size: 14px&quot; color=&quot;#ffffff&quot;&gt;Administrador de torneos&lt;/font&gt;" style="rounded=1;whiteSpace=wrap;html=1;fillColor=#10739E;" vertex="1" parent="1">
          <mxGeometry x="860" y="360" width="200" height="80" as="geometry" />
        </mxCell>
        <mxCell id="MXNzYCbqWOXNuMBfoPRi-59" value="" style="endArrow=classic;html=1;entryX=0.5;entryY=0;entryDx=0;entryDy=0;" edge="1" parent="1" target="MXNzYCbqWOXNuMBfoPRi-58">
          <mxGeometry width="50" height="50" relative="1" as="geometry">
            <mxPoint x="780" y="270" as="sourcePoint" />
            <mxPoint x="780" y="610" as="targetPoint" />
            <Array as="points">
              <mxPoint x="780" y="360" />
            </Array>
          </mxGeometry>
        </mxCell>
      </root>
    </mxGraphModel>
  </diagram>
</mxfile>
